Y9_100_1_ground_reaction
inDegrees=no
nColumns=28
nRows=57
DataType=double
version=3
OpenSimVersion=4.0
endheader
time	ground_force_1_vx	ground_force_1_vy	ground_force_1_vz	ground_force_1_px	ground_force_1_py	ground_force_1_pz	ground_torque_1_x	ground_torque_1_y	ground_torque_1_z	ground_force_2_vx	ground_force_2_vy	ground_force_2_vz	ground_force_2_px	ground_force_2_py	ground_force_2_pz	ground_torque_2_x	ground_torque_2_y	ground_torque_2_z	ground_force_3_vx	ground_force_3_vy	ground_force_3_vz	ground_force_3_px	ground_force_3_py	ground_force_3_pz	ground_torque_3_x	ground_torque_3_y	ground_torque_3_z
1.185	99.56	659.84	37.05	-0.29506	-0.00163	-0.2672	-0	0.9517599999999999	0	0	0	-0	0	0	-0	-0	-0	0	0	0	-0	0	0	-0	-0	-0	0
1.1855	98.83	657.03	36.68	-0.29475	-0.00163	-0.26776	-0	0.94747	0	0	0	-0	0	0	-0	-0	-0	0	0	0	-0	0	0	-0	-0	-0	0
1.186	99.55	655.65	37.04	-0.29466	-0.00163	-0.2679	-0	0.7168600000000001	0	0	0	-0	0	0	-0	-0	-0	0	0	0	-0	0	0	-0	-0	-0	0
1.1865	100.28	658.45	36.68	-0.29498	-0.00163	-0.26716	-0	0.98278	0	0	0	-0	0	0	-0	-0	-0	0	0	0	-0	0	0	-0	-0	-0	0
1.187	99.56	654.24	36.67	-0.29462	-0.00163	-0.26787	-0	0.87963	0	0	0	-0	0	0	-0	-0	-0	0	0	0	-0	0	0	-0	-0	-0	0
1.1875	100.64	654.26	37.03	-0.29455	-0.00163	-0.26762	-0	0.73675	0	0	0	-0	0	0	-0	-0	-0	0	0	0	-0	0	0	-0	-0	-0	0
1.188	101	654.26	37.03	-0.29453	-0.00163	-0.26719	-0	0.82962	0	0	0	-0	0	0	-0	-0	-0	0	0	0	-0	0	0	-0	-0	-0	0
1.1885	100.28	652.85	36.31	-0.29426	-0.00163	-0.26762	-0	0.76915	0	0	0	-0	0	0	-0	-0	-0	0	0	0	-0	0	0	-0	-0	-0	0
1.189	101	651.46	37.03	-0.29417	-0.00163	-0.26773	-0	0.68708	0	0	0	-0	0	0	-0	-0	-0	0	0	0	-0	0	0	-0	-0	-0	0
1.1895	101.37	651.46	37.03	-0.29442	-0.00163	-0.2673	-0	0.78959	0	0	0	-0	0	0	-0	-0	-0	0	0	0	-0	0	0	-0	-0	-0	0
1.19	101	650.0599999999999	36.66	-0.29412	-0.00163	-0.26748	-0	0.7184199999999999	0	0	0	-0	0	0	-0	-0	-0	0	0	0	-0	0	0	-0	-0	-0	0
1.1905	101.72	650.0700000000001	37.02	-0.2938	-0.00163	-0.26746	-0	0.64911	0	0	0	-0	0	0	-0	-0	-0	0	0	0	-0	0	0	-0	-0	-0	0
1.191	102.09	648.67	36.66	-0.29401	-0.00163	-0.26743	-0	0.64035	0	0	0	-0	0	0	-0	-0	-0	0	0	0	-0	0	0	-0	-0	-0	0
1.1915	101.73	648.67	36.3	-0.29376	-0.00163	-0.26745	-0	0.74034	0	0	0	-0	0	0	-0	-0	-0	0	0	0	-0	0	0	-0	-0	-0	0
1.192	102.45	647.28	36.66	-0.29367	-0.00163	-0.26737	-0	0.60823	0	0	0	-0	0	0	-0	-0	-0	0	0	0	-0	0	0	-0	-0	-0	0
1.1925	102.81	647.28	36.66	-0.29364	-0.00163	-0.26715	-0	0.67998	0	0	0	-0	0	0	-0	-0	-0	0	0	0	-0	0	0	-0	-0	-0	0
1.193	102.81	644.48	36.65	-0.29327	-0.00163	-0.26748	-0	0.55831	0	0	0	-0	0	0	-0	-0	-0	0	0	0	-0	0	0	-0	-0	-0	0
1.1935	103.17	643.09	36.64	-0.29292	-0.00163	-0.26764	-0	0.50341	0	0	0	-0	0	0	-0	-0	-0	0	0	0	-0	0	0	-0	-0	-0	0
1.194	103.54	644.48	36.29	-0.2935	-0.00163	-0.26684	-0	0.66239	0	0	0	-0	0	0	-0	-0	-0	0	0	0	-0	0	0	-0	-0	-0	0
1.1945	103.18	641.6799999999999	35.93	-0.29315	-0.00163	-0.26763	-0	0.6043500000000001	0	1.1	6.98	0.05	0.14161	-0.00049	-0.12985	-0	0.06528	0	0	0	-0	0	0	-0	-0	-0	0
1.195	103.53	641.6900000000001	36.64	-0.29285	-0.00163	-0.26758	-0	0.40364	0	3.29	15.34	-0.97	0.16972	-0.00049	-0.12926	-0	-0.007549999999999999	0	0	0	-0	0	0	-0	-0	-0	0
1.1955	104.26	640.29	35.93	-0.29332	-0.00163	-0.26736	-0	0.55847	0	9.09	26.46	-1.61	0.18202	-0.00049	-0.14566	-0	-0.09012000000000001	0	0	0	-0	0	0	-0	-0	-0	0
1.196	104.98	637.5	35.92	-0.29318	-0.00163	-0.26769	-0	0.46667	0	17.42	36.16	-2.25	0.18101	-0.00049	-0.14697	-0	-0.11513	0	0	0	-0	0	0	-0	-0	-0	0
1.1965	104.98	637.5	35.92	-0.29262	-0.00163	-0.26746	-0	0.39468	0	25	38.89	-1.15	0.1831	-0.00049	-0.14163	-0	0.02216	0	0	0	-0	0	0	-0	-0	-0	0
1.197	104.99	637.5	35.92	-0.2929	-0.00163	-0.26724	-0	0.58088	0	30.04	41.65	1.77	0.17811	-0.00049	-0.14528	-0	0.02334	0	0	0	-0	0	0	-0	-0	-0	0
1.1975	103.91	634.6900000000001	35.19	-0.29258	-0.00163	-0.26763	-0	0.55114	0	31.85	50.04	5.45	0.17678	-0.00049	-0.14686	-0	0.23313	0	0	0	-0	0	0	-0	-0	-0	0
1.198	104.26	634.6900000000001	35.91	-0.29228	-0.00163	-0.26735	-0	0.4503	0	33.29	54.22	6.57	0.18332	-0.00049	-0.14936	-0	0.06491	0	0	0	-0	0	0	-0	-0	-0	0
1.1985	105.71	636.11	35.91	-0.29252	-0.00163	-0.26696	-0	0.46831	0	36.53	57	8.039999999999999	0.18462	-0.00049	-0.15029	-0	-0.07008	0	0	0	-0	0	0	-0	-0	-0	0
1.199	106.07	631.91	35.18	-0.29206	-0.00163	-0.26728	-0	0.40993	0	41.24	62.55	8.800000000000001	0.18854	-0.00049	-0.14885	-0	0.0736	0	0	0	-0	0	0	-0	-0	-0	0
1.1995	106.07	631.91	35.18	-0.29206	-0.00163	-0.26728	-0	0.40993	0	44.49	65.31999999999999	9.550000000000001	0.18395	-0.00049	-0.15017	-0	-0.0361	0	0	0	-0	0	0	-0	-0	-0	0
1.2	105.72	631.9	35.19	-0.29265	-0.00163	-0.26706	-0	0.5561699999999999	0	47.01	68.09999999999999	11.74	0.18194	-0.00049	-0.15044	-0	0.07862999999999999	0	0	0	-0	0	0	-0	-0	-0	0
1.2005	105	630.49	34.82	-0.29208	-0.00163	-0.26703	-0	0.5263099999999999	0	48.46	75.08	13.6	0.1832	-0.00049	-0.14933	-0	0.36677	0	0	0	-0	0	0	-0	-0	-0	0
1.201	105.72	629.1	35.18	-0.2917	-0.00163	-0.26694	-0	0.38527	0	49.19	79.27	13.99	0.18922	-0.00049	-0.15131	-0	0.10215	0	0	0	-0	0	0	-0	-0	-0	0
1.2015	106.44	629.11	35.18	-0.29222	-0.00163	-0.26672	-0	0.44957	0	51	84.84	14.39	0.19038	-0.00049	-0.15204	-0	0.00304	0	0	0	-0	0	0	-0	-0	-0	0
1.202	106.81	624.91	34.45	-0.29176	-0.00163	-0.26727	-0	0.36693	0	53.17	89.02	14.79	0.18597	-0.00049	-0.15051	-0	0.11529	0	0	0	-0	0	0	-0	-0	-0	0
1.2025	107.52	624.92	34.81	-0.29143	-0.00163	-0.26725	-0	0.29747	0	55.34	91.8	15.18	0.18622	-0.00049	-0.15311	-0	-0.05763	0	0	0	-0	0	0	-0	-0	-0	0
1.203	106.81	626.3099999999999	34.46	-0.29181	-0.00163	-0.26665	-0	0.51107	0	56.42	94.59	16.64	0.18595	-0.00049	-0.15204	-0	0.12009	0	0	0	-0	0	0	-0	-0	-0	0
1.2035	106.09	622.1	34.08	-0.29112	-0.00163	-0.26718	-0	0.49645	0	55.71	101.59	17.77	0.19103	-0.00049	-0.15281	-0	0.14578	0	0	0	-0	0	0	-0	-0	-0	0
1.204	106.81	620.71	34.44	-0.29131	-0.00163	-0.2671	-0	0.37331	0	52.83	104.42	18.16	0.18906	-0.00049	-0.15232	-0	0.12594	0	0	0	-0	0	0	-0	-0	-0	0
1.2045	107.9	620.72	34.09	-0.29153	-0.00163	-0.26689	-0	0.4069	0	50.67	108.63	18.19	0.19211	-0.00049	-0.1538	-0	-0.16801	0	0	0	-0	0	0	-0	-0	-0	0
1.205	108.62	617.9299999999999	33.72	-0.2908	-0.00163	-0.26726	-0	0.22394	0	49.95	110.04	18.56	0.1898	-0.00049	-0.15284	-0	-0.07221999999999999	0	0	0	-0	0	0	-0	-0	-0	0
1.2055	108.62	617.9299999999999	33.71	-0.29051	-0.00163	-0.26703	-0	0.23992	0	48.51	111.45	18.93	0.18888	-0.00049	-0.1519	-0	0.04456	0	0	0	-0	0	0	-0	-0	-0	0
1.206	107.91	619.3099999999999	33.37	-0.29148	-0.00163	-0.26666	-0	0.44771	0	47.06	114.27	20.4	0.19084	-0.00049	-0.15475	-0	0.03403	0	0	0	-0	0	0	-0	-0	-0	0
1.2065	107.19	616.51	32.99	-0.29084	-0.00163	-0.26679	-0	0.4764	0	43.82	119.9	21.16	0.19281	-0.00049	-0.15497	-0	0.00647	0	0	0	-0	0	0	-0	-0	-0	0
1.207	107.9	615.12	33.71	-0.29073	-0.00163	-0.26714	-0	0.21253	0	38.77	119.95	21.16	0.19103	-0.00049	-0.15379	-0	0.05216	0	0	0	-0	0	0	-0	-0	-0	0
1.2075	108.99	615.13	33.36	-0.29096	-0.00163	-0.26671	-0	0.34852	0	35.51	118.58	20.79	0.19326	-0.00049	-0.15468	-0	-0.185	0	0	0	-0	0	0	-0	-0	-0	0
1.208	108.63	612.3200000000001	32.63	-0.29058	-0.00163	-0.26687	-0	0.36409	0	32.99	121.4	20.81	0.19312	-0.00049	-0.15434	-0	-0.11461	0	0	0	-0	0	0	-0	-0	-0	0
1.2085	109	610.9299999999999	32.27	-0.2905	-0.00163	-0.26683	-0	0.2711	0	30.11	122.83	20.81	0.19323	-0.00049	-0.15358	-0	0.10125	0	0	0	-0	0	0	-0	-0	-0	0
1.209	109	610.92	32.63	-0.29049	-0.00163	-0.26658	-0	0.44432	0	26.87	125.66	21.2	0.1943	-0.00049	-0.1554	-0	-0.06209000000000001	0	0	0	-0	0	0	-0	-0	-0	0
1.2095	108.64	608.12	32.62	-0.29011	-0.00163	-0.26669	-0	0.37174	0	22.9	127.1	21.56	0.19545	-0.00049	-0.15565	-0	0.10108	0	0	0	-0	0	0	-0	-0	-0	0
1.21	109	608.13	32.62	-0.29009	-0.00163	-0.26669	-0	0.26765	0	17.48	124.35	20.1	0.19438	-0.00049	-0.15539	-0	-0.20722	0	0	0	-0	0	0	-0	-0	-0	0
1.2105	109.37	608.12	32.26	-0.29036	-0.00163	-0.26625	-0	0.3826	0	13.15	125.79	19.75	0.19685	-0.00049	-0.1559	-0	-0.38006	0	0	0	-0	0	0	-0	-0	-0	0
1.211	109.37	603.9299999999999	31.17	-0.28959	-0.00163	-0.26684	-0	0.32336	0	10.27	128.61	19.77	0.19653	-0.00049	-0.15664	-0	-0.10529	0	0	0	-0	0	0	-0	-0	-0	0
1.2115	109.73	602.53	31.53	-0.28951	-0.00163	-0.26675	-0	0.29567	0	7.03	128.64	19.4	0.19686	-0.00049	-0.15675	-0	-0.03246	0	0	0	-0	0	0	-0	-0	-0	0
1.212	109.74	602.52	31.89	-0.2901	-0.00163	-0.26626	-0	0.43528	0	4.5	128.67	20.12	0.19883	-0.00049	-0.15761	-0	-0.1745	0	0	0	-0	0	0	-0	-0	-0	0
1.2125	109.74	599.72	31.53	-0.28969	-0.00163	-0.2664	-0	0.34133	0	0.53	130.11	20.5	0.19852	-0.00049	-0.15783	-0	-0.1217	0	0	0	-0	0	0	-0	-0	-0	0
1.213	110.1	598.33	31.52	-0.28931	-0.00163	-0.26657	-0	0.13167	0	-4.52	130.16	19.41	0.19826	-0.00049	-0.15711	-0	-0.31713	0	0	0	-0	0	0	-0	-0	-0	0
